<svg xmlns="http://www.w3.org/2000/svg" height="511pt" version="1.1" viewBox="0 0 511.99976 511" width="511pt">
<g id="surface1">
<path d="M 300.953125 210.46875 C 259.539062 210.46875 225.964844 176.894531 225.964844 135.480469 C 225.964844 127.195312 232.679688 120.480469 240.964844 120.480469 C 282.378906 120.480469 315.953125 154.054688 315.953125 195.46875 C 315.953125 203.753906 309.238281 210.46875 300.953125 210.46875 Z M 300.953125 210.46875 " style=" stroke:none;fill-rule:nonzero;fill:rgb(65.882353%,82.745098%,16.470588%);fill-opacity:1;" />
<path d="M 300.953125 90.484375 C 259.539062 90.484375 225.964844 56.914062 225.964844 15.496094 C 225.964844 7.214844 232.679688 0.5 240.964844 0.5 C 282.378906 0.5 315.953125 34.074219 315.953125 75.488281 C 315.953125 83.769531 309.238281 90.484375 300.953125 90.484375 Z M 300.953125 90.484375 " style=" stroke:none;fill-rule:nonzero;fill:rgb(65.882353%,82.745098%,16.470588%);fill-opacity:1;" />
<path d="M 330.949219 210.46875 C 372.363281 210.46875 405.9375 176.894531 405.9375 135.480469 C 405.9375 127.195312 399.222656 120.480469 390.941406 120.480469 C 349.527344 120.480469 315.953125 154.054688 315.953125 195.46875 C 315.953125 203.753906 322.667969 210.46875 330.949219 210.46875 Z M 330.949219 210.46875 " style=" stroke:none;fill-rule:nonzero;fill:rgb(57.647059%,74.901961%,0%);fill-opacity:1;" />
<path d="M 330.949219 90.484375 C 372.363281 90.484375 405.9375 56.914062 405.9375 15.496094 C 405.9375 7.214844 399.222656 0.5 390.941406 0.5 C 349.527344 0.5 315.953125 34.074219 315.953125 75.488281 C 315.953125 83.769531 322.667969 90.484375 330.949219 90.484375 Z M 330.949219 90.484375 " style=" stroke:none;fill-rule:nonzero;fill:rgb(57.647059%,74.901961%,0%);fill-opacity:1;" />
<path d="M 330.949219 15.496094 L 330.949219 257.460938 C 330.949219 265.859375 324.351562 272.457031 315.953125 272.457031 C 307.550781 272.457031 300.953125 265.859375 300.953125 257.460938 L 300.953125 15.496094 C 300.953125 7.097656 307.550781 0.5 315.953125 0.5 C 324.351562 0.5 330.949219 7.097656 330.949219 15.496094 Z M 330.949219 15.496094 " style=" stroke:none;fill-rule:nonzero;fill:rgb(72.54902%,86.666667%,22.352941%);fill-opacity:1;" />
<path d="M 315.953125 272.457031 L 315.953125 0.5 C 324.351562 0.5 330.949219 7.097656 330.949219 15.496094 L 330.949219 257.460938 C 330.949219 265.859375 324.351562 272.457031 315.953125 272.457031 Z M 315.953125 272.457031 " style=" stroke:none;fill-rule:nonzero;fill:rgb(65.882353%,82.745098%,16.470588%);fill-opacity:1;" />
<path d="M 450.929688 377.441406 C 450.929688 405.339844 442.53125 430.832031 428.136719 452.429688 L 203.769531 452.429688 C 189.371094 430.832031 180.972656 405.339844 180.972656 377.441406 C 180.972656 302.753906 241.261719 242.464844 315.953125 242.464844 C 390.640625 242.464844 450.929688 302.753906 450.929688 377.441406 Z M 450.929688 377.441406 " style=" stroke:none;fill-rule:nonzero;fill:rgb(54.117647%,40%,27.058824%);fill-opacity:1;" />
<path d="M 450.929688 377.441406 C 450.929688 405.339844 442.53125 430.832031 428.136719 452.429688 L 315.953125 452.429688 L 315.953125 242.464844 C 390.640625 242.464844 450.929688 302.753906 450.929688 377.441406 Z M 450.929688 377.441406 " style=" stroke:none;fill-rule:nonzero;fill:rgb(40.784314%,30.196078%,20.392157%);fill-opacity:1;" />
<path d="M 505.921875 380.742188 L 468.929688 428.734375 C 432.335938 477.328125 375.941406 507.621094 315.953125 511.820312 C 310.851562 512.121094 306.054688 512.421875 300.953125 512.421875 L 219.066406 512.421875 C 166.574219 512.421875 132.378906 483.925781 129.082031 482.425781 L 14.996094 482.425781 C 6.597656 482.425781 0 475.828125 0 467.429688 L 0 347.445312 C 0 339.046875 6.597656 332.449219 14.996094 332.449219 L 72.390625 332.449219 L 124.882812 306.953125 C 178.574219 280.855469 242.464844 289.257812 287.457031 328.851562 C 289.855469 330.949219 293.15625 332.148438 296.453125 332.449219 L 360.945312 332.449219 C 377.441406 332.449219 390.941406 345.945312 390.941406 362.445312 C 390.941406 378.941406 377.441406 392.441406 360.945312 392.441406 L 239.464844 392.441406 C 231.066406 392.441406 224.464844 399.339844 224.464844 407.738281 C 224.464844 415.835938 231.066406 422.4375 239.464844 422.4375 L 370.84375 422.4375 C 379.242188 422.4375 387.339844 419.136719 393.039062 413.136719 L 459.03125 342.347656 C 469.230469 330.949219 487.625 329.449219 500.222656 338.75 C 513.421875 348.945312 515.820312 367.542969 505.921875 380.742188 Z M 505.921875 380.742188 " style=" stroke:none;fill-rule:nonzero;fill:rgb(99.215686%,81.960784%,63.921569%);fill-opacity:1;" />
<path d="M 390.941406 362.445312 C 390.941406 378.941406 377.441406 392.441406 360.945312 392.441406 L 315.953125 392.441406 L 315.953125 332.449219 L 360.945312 332.449219 C 377.441406 332.449219 390.941406 345.945312 390.941406 362.445312 Z M 390.941406 362.445312 " style=" stroke:none;fill-rule:nonzero;fill:rgb(100%,73.333333%,52.156863%);fill-opacity:1;" />
<path d="M 505.921875 380.742188 L 468.929688 428.734375 C 432.335938 477.328125 375.941406 507.621094 315.953125 511.820312 L 315.953125 422.4375 L 370.84375 422.4375 C 379.242188 422.4375 387.34375 419.136719 393.042969 413.136719 L 459.03125 342.347656 C 469.230469 330.949219 487.625 329.449219 500.222656 338.746094 C 513.421875 348.945312 515.820312 367.542969 505.921875 380.742188 Z M 505.921875 380.742188 " style=" stroke:none;fill-rule:nonzero;fill:rgb(100%,73.333333%,52.156863%);fill-opacity:1;" />
</g>
</svg>